name rise31.4854peak64.571fall78.6902.mot
datacolumns 19
datarows 12
range 1.69999300000000 1.71833000000000
endheader
time	ground_force1_vx	ground_force1_vy	ground_force1_vz	ground_force1_px	ground_force1_py	ground_force1_pz	ground_force2_vx	ground_force2_vy	ground_force2_vz	ground_force2_px	ground_force2_py	ground_force2_pz	ground_torque1_x	ground_torque1_y	ground_torque1_z	ground_torque2_x	ground_torque2_y	ground_torque2_z	
1.69999300000000	65.67109100000000	774.62562400000002	49.09739500000000	0.30751200000000	0.00000000000000	0.09742500000000	0.00000000000000	0.00000000000000	0.00000000000000	0.00000000000000	0.00000000000000	0.00000000000000	0.00000000000000	16.89306300000000	0.00000000000000	0.00000000000000	0.00000000000000	0.00000000000000	
1.70165700000000	65.19741100000000	777.79648799999995	49.42350800000000	0.30671100000000	0.00000000000000	0.09744700000000	0.00000000000000	0.00000000000000	0.00000000000000	0.00000000000000	0.00000000000000	0.00000000000000	0.00000000000000	17.06611900000000	0.00000000000000	0.00000000000000	0.00000000000000	0.00000000000000	
1.70333200000000	64.71447700000000	780.77339500000005	49.73951900000000	0.30591100000000	0.00000000000000	0.09746900000000	0.00000000000000	0.00000000000000	0.00000000000000	0.00000000000000	0.00000000000000	0.00000000000000	0.00000000000000	17.23443100000000	0.00000000000000	0.00000000000000	0.00000000000000	0.00000000000000	
1.70499600000000	64.22256800000000	783.55453799999998	50.04480000000000	0.30511000000000	0.00000000000000	0.09749300000000	0.00000000000000	0.00000000000000	0.00000000000000	0.00000000000000	0.00000000000000	0.00000000000000	0.00000000000000	17.39762700000000	0.00000000000000	0.00000000000000	0.00000000000000	0.00000000000000	
1.70665800000000	63.72193300000000	786.13841200000002	50.33870000000000	0.30430600000000	0.00000000000000	0.09751800000000	0.00000000000000	0.00000000000000	0.00000000000000	0.00000000000000	0.00000000000000	0.00000000000000	0.00000000000000	17.55532100000000	0.00000000000000	0.00000000000000	0.00000000000000	0.00000000000000	
1.70832600000000	63.21279800000000	788.52382000000000	50.62055400000000	0.30349800000000	0.00000000000000	0.09754400000000	0.00000000000000	0.00000000000000	0.00000000000000	0.00000000000000	0.00000000000000	0.00000000000000	0.00000000000000	17.70712100000000	0.00000000000000	0.00000000000000	0.00000000000000	0.00000000000000	
1.70999600000000	62.69536500000000	790.70988499999999	50.88968600000000	0.30268500000000	0.00000000000000	0.09757100000000	0.00000000000000	0.00000000000000	0.00000000000000	0.00000000000000	0.00000000000000	0.00000000000000	0.00000000000000	17.85262900000000	0.00000000000000	0.00000000000000	0.00000000000000	0.00000000000000	
1.71166000000000	62.16981900000000	792.69605500000000	51.14541700000000	0.30186500000000	0.00000000000000	0.09760000000000	0.00000000000000	0.00000000000000	0.00000000000000	0.00000000000000	0.00000000000000	0.00000000000000	0.00000000000000	17.99144900000000	0.00000000000000	0.00000000000000	0.00000000000000	0.00000000000000	
1.71333000000000	61.63632500000000	794.48211000000003	51.38707100000000	0.30103700000000	0.00000000000000	0.09763100000000	0.00000000000000	0.00000000000000	0.00000000000000	0.00000000000000	0.00000000000000	0.00000000000000	0.00000000000000	18.12318400000000	0.00000000000000	0.00000000000000	0.00000000000000	0.00000000000000	
1.71499300000000	61.09503700000000	796.06817100000001	51.61397700000000	0.30020000000000	0.00000000000000	0.09766200000000	0.00000000000000	0.00000000000000	0.00000000000000	0.00000000000000	0.00000000000000	0.00000000000000	0.00000000000000	18.24744400000000	0.00000000000000	0.00000000000000	0.00000000000000	0.00000000000000	
1.71668600000000	60.54609800000000	797.45469700000001	51.82548200000000	0.29935200000000	0.00000000000000	0.09769500000000	0.00000000000000	0.00000000000000	0.00000000000000	0.00000000000000	0.00000000000000	0.00000000000000	0.00000000000000	18.36384700000000	0.00000000000000	0.00000000000000	0.00000000000000	0.00000000000000	
1.71833000000000	59.98964500000000	798.64249500000005	52.02094800000000	0.29849200000000	0.00000000000000	0.09772900000000	0.00000000000000	0.00000000000000	0.00000000000000	0.00000000000000	0.00000000000000	0.00000000000000	0.00000000000000	18.47202400000000	0.00000000000000	0.00000000000000	0.00000000000000	0.00000000000000	
